<svg xmlns="http://www.w3.org/2000/svg" viewBox="0 0 811 1042.12"><title>Vocab</title><g id="Layer_14" data-name="Layer 14"><rect x="739" y="128.17" width="72" height="101" rx="14.82" style="fill:#62dbfb;isolation:isolate"/></g><g id="Layer_14_copy" data-name="Layer 14 copy"><rect x="706" y="128.17" width="72" height="101" rx="14.82" style="fill:#99e6fc;isolation:isolate"/></g><g id="Layer_14_copy_2" data-name="Layer 14 copy 2"><rect x="706" y="294.17" width="72" height="101" rx="14.82" style="fill:#ffe177;isolation:isolate"/><g style="isolation:isolate"><rect x="739" y="294.17" width="72" height="101" rx="14.82" style="fill:#ffd15b;isolation:isolate"/></g></g><g id="Layer_14_copy_5" data-name="Layer 14 copy 5"><rect x="706" y="294.17" width="72" height="101" rx="14.82" style="fill:#ffe177;isolation:isolate"/></g><g id="Layer_14_copy_4" data-name="Layer 14 copy 4"><rect x="706" y="128.17" width="72" height="101" rx="14.82" style="fill:#99e6fc;isolation:isolate"/></g><g id="Layer_12" data-name="Layer 12"><path d="M825,863.59V996h48a36.45,36.45,0,0,0,23-28V805l-69.76,56A3.27,3.27,0,0,0,825,863.59Z" transform="translate(-142 -25.83)" style="fill:#f07281;isolation:isolate"/></g><g id="Layer_13" data-name="Layer 13"><path d="M854,854v85s-4,26-29,26V859Z" transform="translate(-142 -25.83)" style="fill:#f58a97;isolation:isolate"/></g><g id="Layer_2" data-name="Layer 2"><path d="M262,26H850s35-5,43,39V843s-12,22-46,20c-28.59-1.68-585,3-585,3Z" transform="translate(-142 -25.83)" style="fill:#eb5569;isolation:isolate"/></g><g id="Layer_3" data-name="Layer 3"><path d="M266,26H852V799s6,36-38,38H266Z" transform="translate(-142 -25.83)" style="fill:#f07281;isolation:isolate"/></g><g id="Layer_4" data-name="Layer 4"><path d="M266,865H193c-10,5-41.56,9-50,56-.87-15.88,0-39,1-39-.52-.08,11.21-40.9,46-45l76-1" transform="translate(-142 -25.83)" style="fill:#465a61;isolation:isolate"/></g><g id="Layer_5" data-name="Layer 5"><path d="M266,26l-69,1s-43,0-55,53V886s8-41,50-50h74Z" transform="translate(-142 -25.83)" style="fill:#596c76;isolation:isolate"/></g><g id="Layer_6" data-name="Layer 6"><path d="M266,867V997l-70-2s-33,0-51-41c-.69.38-7.27-34.86,7-58,9.4-14.19,21-24,44-29Z" transform="translate(-142 -25.83)" style="fill:#8d9ca8;isolation:isolate"/></g><g id="Layer_7" data-name="Layer 7"><path d="M151,966H266v32l-71-1S172,993,151,966Z" transform="translate(-142 -25.83)" style="fill:#7a8c98;isolation:isolate"/></g><g id="Layer_8" data-name="Layer 8"><rect x="124" y="840.17" width="559" height="99" style="fill:#f2fbff;isolation:isolate"/></g><g id="Layer_9" data-name="Layer 9"><polygon points="124 939.17 684 939.17 684 969.17 124 972.17 124 939.17" style="fill:#dff6fd;isolation:isolate"/></g><g id="Layer_10" data-name="Layer 10"><path d="M331,922H436v139s0,10-13,6l-40-26-40,25s-9,4-12-3Z" transform="translate(-142 -25.83)" style="fill:#7bacdf;isolation:isolate"/></g><g id="Layer_10_copy" data-name="Layer 10 copy"><path d="M436,922v139s0,7-13,3l-19-13-1-129Z" transform="translate(-142 -25.83)" style="fill:#5f99d7;isolation:isolate"/></g><g id="Layer_19" data-name="Layer 19"><g id="Layer_14_copy_3" data-name="Layer 14 copy 3"><rect x="238" y="102.17" width="403" height="293" rx="31.84" style="fill:#f2fbff;isolation:isolate"/></g><text transform="translate(253 337.32) scale(0.85 1)" style="font-size:250.54136657714844px;fill:#7a8c98;font-family:ArialRoundedMTBold, Arial Rounded MT Bold">A-Z</text></g><g id="Layer_20" data-name="Layer 20"><text x="-142" y="-25.83"/></g><g id="Layer_21" data-name="Layer 21"><rect x="237" y="661.17" width="405" height="57" rx="28.5" style="fill:#f2fbff;isolation:isolate"/></g></svg>